<svg width="19" height="18" viewBox="0 0 19 18" fill="none" xmlns="http://www.w3.org/2000/svg">
<path d="M5.69913 17.6593C6.1177 17.6593 6.40234 17.4414 6.90448 16.9896L9.80091 14.42H15.1663C17.6606 14.42 18.9998 13.0389 18.9998 10.5861V4.17427C18.9998 1.72177 17.6606 0.340698 15.1663 0.340698H4.38484C1.89913 0.340698 0.55127 1.71356 0.55127 4.17427V10.5861C0.55127 13.0471 1.89877 14.42 4.38484 14.42H4.78663V16.5961C4.78663 17.2407 5.12163 17.6593 5.69913 17.6593ZM6.04198 16.1275V13.7C6.04198 13.2482 5.87484 13.0721 5.41448 13.0721H4.39305C2.69413 13.0721 1.89877 12.21 1.89877 10.5778V4.17427C1.89877 2.54213 2.69413 1.68856 4.39341 1.68856H15.1663C16.857 1.68856 17.652 2.54213 17.652 4.17427V10.5778C17.652 12.21 16.857 13.0721 15.1663 13.0721H9.74198C9.28163 13.0721 9.03913 13.1393 8.72056 13.4657L6.04198 16.1275ZM4.53556 8.52713H7.9927C8.26055 8.52713 8.46984 8.31784 8.46984 8.04141C8.46984 7.78213 8.26055 7.55606 7.9927 7.55606H4.53556C4.2677 7.55606 4.05841 7.78213 4.05841 8.04177C4.05841 8.31784 4.2677 8.52713 4.53556 8.52713ZM9.71698 8.52713H15.1327C15.4006 8.52713 15.6184 8.31784 15.6184 8.04141C15.6184 7.78213 15.4006 7.55606 15.1327 7.55606H9.71698C9.44913 7.55606 9.23984 7.78213 9.23984 8.04177C9.23984 8.31784 9.44913 8.52713 9.71698 8.52713ZM4.53556 10.72H5.95877C6.02206 10.7209 6.08491 10.7092 6.14366 10.6857C6.20242 10.6621 6.25592 10.6271 6.30106 10.5827C6.3462 10.5384 6.38209 10.4855 6.40665 10.4271C6.4312 10.3688 6.44394 10.3061 6.44413 10.2428C6.44413 9.96677 6.22627 9.74927 5.95841 9.74927H4.53556C4.2677 9.74927 4.05841 9.96713 4.05841 10.2432C4.05841 10.5111 4.2677 10.72 4.53556 10.72ZM7.69127 10.72H11.8848C11.9477 10.7208 12.0101 10.7089 12.0683 10.6852C12.1266 10.6615 12.1795 10.6264 12.2239 10.5819C12.2684 10.5375 12.3035 10.4846 12.3272 10.4263C12.3509 10.3681 12.3628 10.3057 12.362 10.2428C12.362 9.96677 12.1527 9.74927 11.8848 9.74927H7.69127C7.42341 9.74927 7.20555 9.96713 7.20555 10.2432C7.20555 10.5111 7.42341 10.72 7.69127 10.72ZM13.6091 10.72H15.1327C15.4006 10.72 15.6184 10.5107 15.6184 10.2428C15.6184 9.96677 15.4006 9.74927 15.1327 9.74927H13.6091C13.3413 9.74927 13.132 9.96713 13.132 10.2432C13.132 10.5111 13.3413 10.72 13.6091 10.72Z" fill="#666666"/>
</svg>
