<svg width="54" height="55" viewBox="0 0 54 55" fill="none" xmlns="http://www.w3.org/2000/svg">
<path d="M38.249 20.7566C43.1428 20.7836 45.7933 21.0018 47.5213 22.7298C49.499 24.7076 49.499 27.8891 49.499 34.2521V36.5021C49.499 42.8673 49.499 46.0488 47.5213 48.0266C45.5458 50.0021 42.362 50.0021 35.999 50.0021H17.999C11.636 50.0021 8.45227 50.0021 6.47677 48.0266C4.49902 46.0466 4.49902 42.8673 4.49902 36.5021V34.2521C4.49902 27.8891 4.49902 24.7076 6.47677 22.7298C8.20477 21.0018 10.8553 20.7836 15.749 20.7566" stroke="#44294B" stroke-width="1.5" stroke-linecap="round"/>
<path d="M26.9985 34.2522V5.0022M26.9985 5.0022L33.7485 12.8772M26.9985 5.0022L20.2485 12.8772" stroke="#44294B" stroke-width="1.5" stroke-linecap="round" stroke-linejoin="round"/>
</svg>
